<svg width="22" height="18" viewBox="0 0 22 18" fill="none" xmlns="http://www.w3.org/2000/svg">
<path d="M2.72869 0.00195312C1.49253 0.00195312 0.479004 1.01548 0.479004 2.25164V15.7497C0.479004 16.9859 1.49253 17.9994 2.72869 17.9994H19.2264C20.4625 17.9994 21.476 16.9859 21.476 15.7497V2.25164C21.476 1.01548 20.4625 0.00195312 19.2264 0.00195312H2.72869ZM2.72869 1.50174H19.2264C19.6482 1.50174 19.9763 1.82982 19.9763 2.25164V12.4397L14.727 7.19039L11.7274 10.19L7.22805 5.69061L1.97879 10.9399V2.25164C1.97879 1.82982 2.30687 1.50174 2.72869 1.50174ZM16.9767 3.00153C16.1506 3.00153 15.4769 3.67526 15.4769 4.50132C15.4769 5.32737 16.1506 6.00111 16.9767 6.00111C17.8027 6.00111 18.4765 5.32737 18.4765 4.50132C18.4765 3.67526 17.8027 3.00153 16.9767 3.00153ZM7.22805 7.8114L12.6999 13.2833L13.7545 12.217L12.7878 11.2504L14.727 9.31119L19.9763 14.5604V15.7497C19.9763 16.1716 19.6482 16.4996 19.2264 16.4996H2.72869C2.30687 16.4996 1.97879 16.1716 1.97879 15.7497V13.0607L7.22805 7.8114Z" fill="#FF4F00"/>
</svg>
