<svg width="18" height="18" viewBox="0 0 18 18" fill="none" xmlns="http://www.w3.org/2000/svg">
<path d="M0.749406 0.00195312C0.550528 0.00197301 0.359801 0.0809859 0.219173 0.221614C0.0785445 0.362242 -0.000468396 0.552969 -0.000488281 0.751848V17.2495C-0.000468396 17.4484 0.0785445 17.6391 0.219173 17.7798C0.359801 17.9204 0.550528 17.9994 0.749406 17.9994H17.2471C17.446 17.9994 17.6367 17.9204 17.7773 17.7798C17.9179 17.6391 17.997 17.4484 17.997 17.2495V0.751848C17.997 0.552969 17.9179 0.362242 17.7773 0.221614C17.6367 0.0809859 17.446 0.00197301 17.2471 0.00195312H0.749406ZM1.4993 1.50174H16.4972V16.4996H1.4993V1.50174ZM2.99909 3.00153V7.5009H4.49888V3.00153H2.99909Z" fill="#FF4F00"/>
</svg>
