<svg width="22" height="16" viewBox="0 0 22 16" fill="none" xmlns="http://www.w3.org/2000/svg">
<path d="M2.74316 0.5C1.50684 0.5 0.493164 1.51367 0.493164 2.75V13.25C0.493164 14.4805 1.50684 15.5 2.74316 15.5H19.2432C20.4795 15.5 21.4932 14.4863 21.4932 13.25V2.75C21.4932 1.51367 20.4736 0.5 19.2432 0.5H2.74316ZM2.74316 2H19.2432C19.665 2 19.9932 2.32812 19.9932 2.75V3.5H1.99316V2.75C1.99316 2.32227 2.31543 2 2.74316 2ZM1.99316 5H19.9932V13.25C19.9932 13.6719 19.665 14 19.2432 14H2.74316C2.32129 14 1.99316 13.6719 1.99316 13.25V5Z" fill="#FF4F00"/>
</svg>
