<svg width="17" height="18" viewBox="0 0 17 18" fill="none" xmlns="http://www.w3.org/2000/svg">
<path d="M2.72527 0.00195312C1.49165 0.00195312 0.475586 1.01801 0.475586 2.25164V9.00069H1.97537V2.25164C1.97537 1.82949 2.30313 1.50174 2.72527 1.50174H9.47432V6.00111H13.9737V9.00069H15.4735V4.94071L10.5347 0.00195312H2.72527ZM10.9741 2.56214L12.9133 4.50132H10.9741V2.56214ZM0.475586 10.5005V17.9994H1.97537V14.9998H2.72527C3.95889 14.9998 4.97495 13.9838 4.97495 12.7502C4.97495 11.5165 3.95889 10.5005 2.72527 10.5005H0.475586ZM6.47474 10.5005V17.9994H8.72442C9.95805 17.9994 10.9741 16.9834 10.9741 15.7497V12.7502C10.9741 11.5165 9.95805 10.5005 8.72442 10.5005H6.47474ZM12.4739 10.5005V17.9994H13.9737V14.9998H15.4735V13.5001H13.9737V12.0003H16.9733V10.5005H12.4739ZM1.97537 12.0003H2.72527C3.14741 12.0003 3.47516 12.328 3.47516 12.7502C3.47516 13.1723 3.14741 13.5001 2.72527 13.5001H1.97537V12.0003ZM7.97453 12.0003H8.72442C9.14657 12.0003 9.47432 12.328 9.47432 12.7502V15.7497C9.47432 16.1719 9.14657 16.4996 8.72442 16.4996H7.97453V12.0003Z" fill="#FF4F00"/>
</svg>
