<svg width="22" height="11" viewBox="0 0 22 11" fill="none" xmlns="http://www.w3.org/2000/svg">
<path d="M1.24648 0.500977C1.0476 0.500996 0.856871 0.58001 0.716243 0.720638C0.575615 0.861266 0.496602 1.05199 0.496582 1.25087V10.2496C0.496602 10.4485 0.575615 10.6392 0.716243 10.7798C0.856871 10.9205 1.0476 10.9995 1.24648 10.9995H20.7437C20.9426 10.9995 21.1333 10.9205 21.274 10.7798C21.4146 10.6392 21.4936 10.4485 21.4936 10.2496V1.25087C21.4936 1.05199 21.4146 0.861266 21.274 0.720638C21.1333 0.58001 20.9426 0.500996 20.7437 0.500977H1.24648ZM1.99637 2.00077H19.9938V9.49971H1.99637V2.00077ZM3.49616 3.50055V5.00034H4.99595V7.99992H6.49574V3.50055H3.49616ZM7.99553 6.50013V7.99992H9.49531V6.50013H7.99553ZM10.9951 6.50013V7.99992H12.4949V6.50013H10.9951Z" fill="#FF4F00"/>
</svg>
