<svg width="22" height="11" viewBox="0 0 22 11" fill="none" xmlns="http://www.w3.org/2000/svg">
<path d="M20.7364 0.500977C20.9353 0.500996 21.126 0.58001 21.2667 0.720638C21.4073 0.861266 21.4863 1.05199 21.4863 1.25087V10.2496C21.4863 10.4485 21.4073 10.6392 21.2667 10.7798C21.126 10.9205 20.9353 10.9995 20.7364 10.9995H1.23918C1.0403 10.9995 0.849577 10.9205 0.708948 10.7798C0.568319 10.6392 0.489307 10.4485 0.489286 10.2496V1.25087C0.489307 1.05199 0.568319 0.861266 0.708948 0.720638C0.849577 0.58001 1.0403 0.500996 1.23918 0.500977H20.7364ZM19.9865 2.00077H1.98908V9.49971H19.9865V2.00077ZM18.4868 3.50055V7.99992H16.987V3.50055H18.4868Z" fill="#FF4F00"/>
</svg>
