<svg width="25" height="20" viewBox="0 0 25 20" fill="none" xmlns="http://www.w3.org/2000/svg">
<path d="M12.9812 0.000976562C10.2336 0.000976562 7.84327 1.91086 7.18126 4.53549C5.5643 4.77569 4.28127 6.06458 4.02936 7.74012C2.23664 8.34941 0.98291 10.0601 0.98291 11.9993C0.98291 14.4775 3.00411 16.4987 5.48228 16.4987H9.98164V14.9989H5.48228C3.83017 14.9989 2.4827 13.6514 2.4827 11.9993C2.4827 10.5757 3.49623 9.33951 4.88471 9.0583L5.49985 8.88254L5.48228 8.24981C5.48228 7.0078 6.48995 6.00013 7.6558 5.99427L7.80812 6.01185H8.45842L8.55216 5.36155C8.86266 3.15874 10.7667 1.50077 12.9812 1.50077C14.7915 1.50077 16.4202 2.57874 17.1291 4.24257L17.3927 4.88701L18.0489 4.66438C18.3887 4.55307 18.6933 4.50034 18.9804 4.50034C20.6325 4.50034 21.98 5.84781 21.98 7.49992C21.98 7.85143 21.9097 8.2088 21.769 8.56618L21.5581 9.14031L22.0737 9.46839C22.9525 10.025 23.4797 10.9682 23.4797 11.9993C23.4797 13.6514 22.1323 14.9989 20.4802 14.9989H14.481V16.4987H20.4802C22.9583 16.4987 24.9795 14.4775 24.9795 11.9993C24.9795 10.6518 24.382 9.39223 23.3509 8.54274C23.4387 8.19709 23.4797 7.84558 23.4797 7.49992C23.4797 4.76984 21.066 2.54359 18.2188 3.07086C17.1642 1.19026 15.1782 0.000976562 12.9812 0.000976562ZM12.2313 8.99971L8.48185 13.4991H11.4814V19.4982H12.9812V13.4991H15.9808L12.2313 8.99971Z" fill="#FF4F00"/>
</svg>
