<svg width="22" height="16" viewBox="0 0 22 16" fill="none" xmlns="http://www.w3.org/2000/svg">
<path d="M2.71794 0.518555C1.48179 0.518555 0.468262 1.53208 0.468262 2.76824V13.2668C0.468262 14.5029 1.48179 15.5164 2.71794 15.5164H19.2156C20.4459 15.5164 21.4653 14.5029 21.4653 13.2668V2.76824C21.4653 1.53208 20.4518 0.518555 19.2156 0.518555H2.71794ZM2.71794 2.01834H19.2156C19.6374 2.01834 19.9655 2.34642 19.9655 2.76824V13.2668C19.9655 13.6886 19.6374 14.0167 19.2156 14.0167H2.71794C2.29613 14.0167 1.96805 13.6886 1.96805 13.2668V2.76824C1.96805 2.34642 2.29613 2.01834 2.71794 2.01834ZM7.98478 3.48884V12.5169L15.4837 7.99992L7.98478 3.48884ZM9.48457 6.1369L12.5779 7.99992L9.48457 9.86294V6.1369Z" fill="#FF4F00"/>
</svg>
