<svg width="56" height="59" viewBox="0 0 56 59" fill="none" xmlns="http://www.w3.org/2000/svg">
<g filter="url(#filter0_dd_232_6734)">
<rect x="2" y="0.625" width="52" height="52" rx="12" fill="#F5F5F5"/>
<path d="M20 14.625C20 15.75 19.375 16.625 18 16.625V18.625C18.7578 18.625 19.4219 18.4141 20 18.0781V24.625H22V14.625H20ZM34 14.625V34.7109L29.4531 30.1719L28.0469 31.5859L35 38.5391L41.9609 31.5859L40.5391 30.1719L36 34.7109V14.625H34ZM20 28.625C18.7188 28.625 17.6484 29.1797 16.9844 29.9531C16.3125 30.7344 16 31.7031 16 32.625H18C18 32.1719 18.1719 31.6328 18.5 31.2578C18.8203 30.8828 19.25 30.625 20 30.625C20.8359 30.625 22 31.3281 22 32.625C22 32.6719 21.8438 33.0703 21.3672 33.5312C20.8906 33.9922 20.1875 34.4922 19.4766 34.9375C18.0469 35.8125 16.5938 36.4609 16.5938 36.4609L16 36.7188V38.625H24V36.625H20.5391C21.3203 36.1406 22.1172 35.5938 22.7578 34.9688C23.4062 34.3438 24 33.625 24 32.625C24 30.1719 21.9219 28.625 20 28.625Z" fill="#B0B0B0"/>
</g>
<defs>
<filter id="filter0_dd_232_6734" x="0" y="0.625" width="56" height="58" filterUnits="userSpaceOnUse" color-interpolation-filters="sRGB">
<feFlood flood-opacity="0" result="BackgroundImageFix"/>
<feColorMatrix in="SourceAlpha" type="matrix" values="0 0 0 0 0 0 0 0 0 0 0 0 0 0 0 0 0 0 127 0" result="hardAlpha"/>
<feMorphology radius="2" operator="erode" in="SourceAlpha" result="effect1_dropShadow_232_6734"/>
<feOffset dy="4"/>
<feGaussianBlur stdDeviation="2"/>
<feColorMatrix type="matrix" values="0 0 0 0 0.0941176 0 0 0 0 0.152941 0 0 0 0 0.294118 0 0 0 0.08 0"/>
<feBlend mode="normal" in2="BackgroundImageFix" result="effect1_dropShadow_232_6734"/>
<feColorMatrix in="SourceAlpha" type="matrix" values="0 0 0 0 0 0 0 0 0 0 0 0 0 0 0 0 0 0 127 0" result="hardAlpha"/>
<feMorphology radius="2" operator="erode" in="SourceAlpha" result="effect2_dropShadow_232_6734"/>
<feOffset dy="2"/>
<feGaussianBlur stdDeviation="2"/>
<feColorMatrix type="matrix" values="0 0 0 0 0.0941176 0 0 0 0 0.152941 0 0 0 0 0.294118 0 0 0 0.12 0"/>
<feBlend mode="normal" in2="effect1_dropShadow_232_6734" result="effect2_dropShadow_232_6734"/>
<feBlend mode="normal" in="SourceGraphic" in2="effect2_dropShadow_232_6734" result="shape"/>
</filter>
</defs>
</svg>
