<svg width="56" height="59" viewBox="0 0 56 59" fill="none" xmlns="http://www.w3.org/2000/svg">
<g filter="url(#filter0_dd_228_7152)">
<rect x="2" y="0.625" width="52" height="52" rx="12" fill="#F5F5F5"/>
<path d="M30 18.625C30 17.5234 29.1016 16.625 28 16.625C26.8984 16.625 26 17.5234 26 18.625C26 19.7266 26.8984 20.625 28 20.625C29.1016 20.625 30 19.7266 30 18.625ZM30 26.625C30 25.5234 29.1016 24.625 28 24.625C26.8984 24.625 26 25.5234 26 26.625C26 27.7266 26.8984 28.625 28 28.625C29.1016 28.625 30 27.7266 30 26.625ZM30 34.625C30 33.5234 29.1016 32.625 28 32.625C26.8984 32.625 26 33.5234 26 34.625C26 35.7266 26.8984 36.625 28 36.625C29.1016 36.625 30 35.7266 30 34.625Z" fill="#B0B0B0"/>
</g>
<defs>
<filter id="filter0_dd_228_7152" x="0" y="0.625" width="56" height="58" filterUnits="userSpaceOnUse" color-interpolation-filters="sRGB">
<feFlood flood-opacity="0" result="BackgroundImageFix"/>
<feColorMatrix in="SourceAlpha" type="matrix" values="0 0 0 0 0 0 0 0 0 0 0 0 0 0 0 0 0 0 127 0" result="hardAlpha"/>
<feMorphology radius="2" operator="erode" in="SourceAlpha" result="effect1_dropShadow_228_7152"/>
<feOffset dy="4"/>
<feGaussianBlur stdDeviation="2"/>
<feColorMatrix type="matrix" values="0 0 0 0 0.0941176 0 0 0 0 0.152941 0 0 0 0 0.294118 0 0 0 0.08 0"/>
<feBlend mode="normal" in2="BackgroundImageFix" result="effect1_dropShadow_228_7152"/>
<feColorMatrix in="SourceAlpha" type="matrix" values="0 0 0 0 0 0 0 0 0 0 0 0 0 0 0 0 0 0 127 0" result="hardAlpha"/>
<feMorphology radius="2" operator="erode" in="SourceAlpha" result="effect2_dropShadow_228_7152"/>
<feOffset dy="2"/>
<feGaussianBlur stdDeviation="2"/>
<feColorMatrix type="matrix" values="0 0 0 0 0.0941176 0 0 0 0 0.152941 0 0 0 0 0.294118 0 0 0 0.12 0"/>
<feBlend mode="normal" in2="effect1_dropShadow_228_7152" result="effect2_dropShadow_228_7152"/>
<feBlend mode="normal" in="SourceGraphic" in2="effect2_dropShadow_228_7152" result="shape"/>
</filter>
</defs>
</svg>
