<svg width="56" height="59" viewBox="0 0 56 59" fill="none" xmlns="http://www.w3.org/2000/svg">
<g filter="url(#filter0_dd_353_10420)">
<rect x="2" y="0.625" width="52" height="52" rx="12" fill="#F5F5F5"/>
<path d="M28.0469 13.5039C20.875 13.5039 15.0469 19.332 15.0469 26.5039C15.0469 29.0977 15.8828 31.4727 17.1875 33.5039L14.9531 39.7461L21.9063 37.7852C23.75 38.793 25.7969 39.5039 28.0469 39.5039C35.2188 39.5039 41.0469 33.6758 41.0469 26.5039C41.0469 19.332 35.2188 13.5039 28.0469 13.5039ZM28.0469 15.5039C34.1328 15.5039 39.0469 20.418 39.0469 26.5039C39.0469 32.5898 34.1328 37.5039 28.0469 37.5039C25.9609 37.5039 24.0313 36.918 22.3594 35.9102L21.9922 35.6836L18.1406 36.7617L19.3906 33.293L19.0859 32.8711C17.8047 31.0664 17.0469 28.8789 17.0469 26.5039C17.0469 20.418 21.9609 15.5039 28.0469 15.5039ZM23.1719 19.5039C22.9453 19.5039 22.5703 19.5977 22.25 19.9727C21.9375 20.3398 21.0469 21.2383 21.0469 23.0664C21.0469 24.8867 22.2813 26.6523 22.4531 26.9023C22.625 27.1523 24.8828 30.8945 28.3359 32.5039C29.1563 32.8867 29.7969 33.1133 30.2969 33.2852C31.125 33.5664 31.875 33.5273 32.4688 33.4336C33.1328 33.3242 34.5078 32.5352 34.7969 31.668C35.0781 30.8008 35.0859 30.0586 34.9922 29.9023C34.9141 29.7461 34.6797 29.6523 34.3359 29.4727C33.9922 29.2852 32.2969 28.3867 31.9844 28.2695C31.6719 28.1367 31.4375 28.082 31.2031 28.4492C30.9766 28.8242 30.3203 29.6602 30.1172 29.9023C29.9141 30.1523 29.7188 30.1836 29.375 29.9961C29.0234 29.8086 27.9141 29.418 26.6016 28.1523C25.5781 27.168 24.8828 25.957 24.6875 25.582C24.4844 25.207 24.6641 25.0117 24.8359 24.832C24.9922 24.6602 25.1797 24.3945 25.3516 24.1758C25.5234 23.9648 25.5781 23.8008 25.6953 23.5586C25.8125 23.3086 25.7578 23.0898 25.6719 22.9102C25.5781 22.7227 24.8906 20.8945 24.6094 20.1523C24.3281 19.4336 24.0391 19.5273 23.8281 19.5195C23.6328 19.5039 23.3984 19.5039 23.1719 19.5039Z" fill="#B0B0B0"/>
</g>
<defs>
<filter id="filter0_dd_353_10420" x="0" y="0.625" width="56" height="58" filterUnits="userSpaceOnUse" color-interpolation-filters="sRGB">
<feFlood flood-opacity="0" result="BackgroundImageFix"/>
<feColorMatrix in="SourceAlpha" type="matrix" values="0 0 0 0 0 0 0 0 0 0 0 0 0 0 0 0 0 0 127 0" result="hardAlpha"/>
<feMorphology radius="2" operator="erode" in="SourceAlpha" result="effect1_dropShadow_353_10420"/>
<feOffset dy="4"/>
<feGaussianBlur stdDeviation="2"/>
<feColorMatrix type="matrix" values="0 0 0 0 0.0941176 0 0 0 0 0.152941 0 0 0 0 0.294118 0 0 0 0.08 0"/>
<feBlend mode="normal" in2="BackgroundImageFix" result="effect1_dropShadow_353_10420"/>
<feColorMatrix in="SourceAlpha" type="matrix" values="0 0 0 0 0 0 0 0 0 0 0 0 0 0 0 0 0 0 127 0" result="hardAlpha"/>
<feMorphology radius="2" operator="erode" in="SourceAlpha" result="effect2_dropShadow_353_10420"/>
<feOffset dy="2"/>
<feGaussianBlur stdDeviation="2"/>
<feColorMatrix type="matrix" values="0 0 0 0 0.0941176 0 0 0 0 0.152941 0 0 0 0 0.294118 0 0 0 0.12 0"/>
<feBlend mode="normal" in2="effect1_dropShadow_353_10420" result="effect2_dropShadow_353_10420"/>
<feBlend mode="normal" in="SourceGraphic" in2="effect2_dropShadow_353_10420" result="shape"/>
</filter>
</defs>
</svg>
